# xmcd
#
# Track frame offsets: 
#        183
#        14583
#        36020
#        52745
#        68933
#        84808
#        112358
#        128545
#        141858
#        170520
#        199933
#
# Disc length: 2888 seconds
#
# Revision: 0
# Processed by: cddbd v1.5PL3 Copyright (c) Steve Scherf et al.
# Submitted via: ExactAudioCopy v0.95a5
#
DISCID=940b460b
DTITLE=Michael Coleman - You Can't Take What I Got
DYEAR=1900
DGENRE=Blues
TTITLE0=The Train
TTITLE1=I'll Play The Blues For You
TTITLE2=Phone Booth
TTITLE3=Agony
TTITLE4=You Can't Take What I Got
TTITLE5=Superman Lover
TTITLE6=Ive Been Fooling Around
TTITLE7=I Got Loaded
TTITLE8=You Don't Know Like I Know
TTITLE9=Cold Cold Feeling
TTITLE10=May I Have A Chance With You
EXTD=
EXTT0=
EXTT1=
EXTT2=
EXTT3=
EXTT4=
EXTT5=
EXTT6=
EXTT7=
EXTT8=
EXTT9=
EXTT10=
PLAYORDER=
